<?xml version="1.0" encoding="UTF-8"?>
<svg version="1.1" xmlns="http://www.w3.org/2000/svg" width="978" height="194">
<path d="M0 0 C322.74 0 645.48 0 978 0 C978 64.02 978 128.04 978 194 C655.26 194 332.52 194 0 194 C0 129.98 0 65.96 0 0 Z " fill="#010108" transform="translate(0,0)"/>
<path d="M0 0 C2.9625564 0.51388836 5.9253036 0.98189407 8.8984375 1.42822266 C31.68551833 5.19835399 55.5034106 14.27384435 76.15136719 24.42626953 C78.93915168 25.7842794 81.74885476 27.08950913 84.5625 28.39306641 C97.99445678 34.65965041 110.93661883 41.54728922 123.75683594 48.97753906 C128.60526934 51.77420285 133.48874947 54.50857457 138.3671875 57.25244141 C144.68518231 60.81078478 150.97242638 64.41230529 157.21948242 68.09375 C175.26740895 78.69720546 190.59156558 84.96758978 211.8515625 85.28759766 C213.41688049 85.32198844 214.98216818 85.35778273 216.54742432 85.3948822 C220.65794398 85.48944107 224.76859882 85.56896958 228.8795166 85.64398193 C236.16222582 85.77852926 243.44449199 85.93480159 250.7265625 86.10009766 C251.52173405 86.11797773 252.31690559 86.13585781 253.13617325 86.15427971 C276.22178796 86.68870031 299.26212105 88.15919807 322.2421875 90.43994141 C323.08997772 90.5229248 323.93776794 90.6059082 324.81124878 90.69140625 C345.50952782 92.73968971 366.45729624 95.28978714 386.49902344 101.02783203 C389.0131179 101.73952129 391.53775714 102.40764762 394.0625 103.08056641 C420.10995521 110.17976223 445.61915647 120.77637791 467.6171875 136.62744141 C468.59816406 137.32353516 469.57914063 138.01962891 470.58984375 138.73681641 C477.095803 143.47147578 483.043352 148.60363158 488.90234375 154.09619141 C492.06214431 157.04230761 495.31133357 159.84751879 498.6171875 162.62744141 C494.57513077 162.62744141 492.42297177 160.62331881 489.2421875 158.37744141 C458.74000526 137.5736775 425.13652031 124.92286518 389.6171875 115.62744141 C388.73434082 115.39283203 387.85149414 115.15822266 386.94189453 114.91650391 C374.65475521 111.70356227 362.24172901 109.70139875 349.6796875 107.93994141 C348.95357269 107.83711853 348.22745789 107.73429565 347.4793396 107.62835693 C324.89802986 104.46672452 302.23162358 103.1801299 279.46483231 102.21923828 C277.26878396 102.12591566 275.07284508 102.03031874 272.87692261 101.93408203 C251.34366077 100.99208823 229.80960528 100.27704873 208.26419449 99.68475342 C207.57630718 99.66584045 206.88841988 99.64692749 206.1796875 99.62744141 C205.49155849 99.60852844 204.80342949 99.58961548 204.09444809 99.57012939 C180.74773462 98.92530117 157.47959708 97.78093053 134.19287109 95.97558594 C129.85306618 95.64064721 125.51124545 95.34674837 121.16796875 95.06103516 C118.75517889 94.89610079 116.34241579 94.730774 113.9296875 94.56494141 C112.87716797 94.49791016 111.82464844 94.43087891 110.74023438 94.36181641 C109.80888672 94.29349609 108.87753906 94.22517578 107.91796875 94.15478516 C107.12559814 94.10056396 106.33322754 94.04634277 105.5168457 93.99047852 C103.6171875 93.62744141 103.6171875 93.62744141 101.6171875 91.62744141 C102.51801559 91.55560387 102.51801559 91.55560387 103.43704224 91.48231506 C109.69916404 90.982427 115.96098938 90.47894272 122.22265625 89.97338867 C124.55819438 89.7852949 126.89380603 89.59811184 129.22949219 89.41186523 C132.59069342 89.14368428 135.95161481 88.87220725 139.3125 88.60009766 C140.35334747 88.51776382 141.39419495 88.43542999 142.46658325 88.3506012 C147.22945397 87.9619826 151.91701823 87.52754834 156.6171875 86.62744141 C111.8628707 60.11505452 65.96060626 33.01510611 14.6171875 21.62744141 C13.8348877 21.45019531 13.05258789 21.27294922 12.24658203 21.09033203 C-47.2318886 7.89142447 -108.9753685 13.99954451 -167.5078125 28.50244141 C-168.31941833 28.70323303 -169.13102417 28.90402466 -169.96722412 29.11090088 C-191.28378711 34.41558549 -212.26906318 40.76809588 -233.13964844 47.60693359 C-236.27589589 48.63335971 -239.41514815 49.65019741 -242.5546875 50.66650391 C-254.66058841 54.60825743 -266.58024587 58.85194424 -278.3828125 63.62744141 C-272.70726649 65.36810354 -267.02166702 66.52342421 -261.18359375 67.58056641 C-259.16436805 67.95277252 -257.14516311 68.32509131 -255.12597656 68.69750977 C-254.07639771 68.88989227 -253.02681885 69.08227478 -251.94543457 69.28048706 C-233.01827835 72.75686361 -214.15412892 76.3811008 -195.3828125 80.62744141 C-194.61187256 80.8016864 -193.84093262 80.9759314 -193.04663086 81.15545654 C-183.79504189 83.2471806 -174.5461134 85.35054219 -165.29837036 87.459198 C-148.67467537 91.24937835 -132.04521963 95.01066569 -115.3828125 98.62744141 C-114.67805786 98.78041687 -113.97330322 98.93339233 -113.24719238 99.09100342 C-85.07103734 105.19048871 -56.76048327 110.40140638 -28.1328125 113.87744141 C-26.91851562 114.02850342 -25.70421875 114.17956543 -24.453125 114.33520508 C2.69351974 117.44927089 29.84071332 117.91203797 57.12724972 117.79729772 C61.68746157 117.78067959 66.24768564 117.77691256 70.80792236 117.77183533 C79.41038832 117.76058965 88.01279961 117.73996093 96.61523557 117.71493763 C112.0232452 117.67019467 127.43127393 117.63719177 142.83933187 117.61469358 C148.22018366 117.60640252 153.60098022 117.59235473 158.98180604 117.57385415 C208.59956302 117.41187951 267.61697324 117.59740838 307.6171875 151.62744141 C309.484375 153.91650391 309.484375 153.91650391 310.6171875 155.62744141 C306.16633197 154.26671298 302.23108208 152.48242558 298.1171875 150.31494141 C292.11402889 147.21267596 286.10375845 144.87852366 279.67578125 142.76806641 C276.6171875 141.62744141 276.6171875 141.62744141 274.32421875 140.08056641 C270.33723104 137.94036521 266.32110209 137.6569811 261.8671875 137.12744141 C259.96842865 136.88120892 258.06999217 136.63247868 256.171875 136.38134766 C255.23053711 136.25775879 254.28919922 136.13416992 253.31933594 136.00683594 C250.25076486 135.57599392 247.21138146 135.04731023 244.16692543 134.47275162 C228.28204109 131.4939936 212.53488076 130.31672876 196.390625 130.36181641 C194.69144607 130.35977778 192.99226782 130.35709468 191.29309082 130.3538208 C186.79066456 130.34848383 182.28837922 130.3572702 177.7859726 130.37030029 C174.96166068 130.37751943 172.13736937 130.38069603 169.31304932 130.3828125 C146.68478661 130.40384844 124.10258978 130.66612083 101.4921875 131.62744141 C80.22574435 132.52483347 58.98903454 132.88461374 37.70609283 132.93249512 C35.36738679 132.93974699 33.02879172 132.95290619 30.69012451 132.96801758 C13.88580296 133.06896249 -2.77304424 132.66924816 -19.5234375 131.24853516 C-20.25025034 131.18697046 -20.97706318 131.12540577 -21.72590065 131.06197548 C-50.92176615 128.53242081 -79.66346384 123.32122445 -108.3828125 117.62744141 C-109.55811523 117.39573242 -110.73341797 117.16402344 -111.94433594 116.92529297 C-117.42743605 115.84334345 -122.90738551 114.74757323 -128.3828125 113.62744141 C-128.3828125 112.96744141 -128.3828125 112.30744141 -128.3828125 111.62744141 C-128.9190625 111.59005859 -129.4553125 111.55267578 -130.0078125 111.51416016 C-142.72167524 110.44770127 -155.18119946 107.48375422 -167.6328125 104.81494141 C-168.8487207 104.55479248 -170.06462891 104.29464355 -171.31738281 104.02661133 C-177.10585523 102.78259752 -182.8875221 101.51875969 -188.65625 100.18603516 C-204.38506678 96.60496432 -220.20793742 93.91758244 -236.1328125 91.37744141 C-237.21330872 91.20472717 -238.29380493 91.03201294 -239.40704346 90.85406494 C-256.61564102 88.10023271 -256.61564102 88.10023271 -273.90170288 85.90402222 C-275.75711434 85.69719089 -277.61147533 85.48089716 -279.46524048 85.25979614 C-300.65111006 82.76026075 -321.56107007 82.18609132 -342.87689209 82.30487061 C-346.13024562 82.31827963 -349.38346162 82.31303015 -352.63683033 82.30800533 C-380.98232312 82.2750199 -408.96814276 83.75815953 -437.14453125 86.96337891 C-444.87643348 87.81972689 -452.61222286 88.30551698 -460.3828125 88.62744141 C-457.65393912 86.80819249 -456.47711992 86.27398431 -453.41357422 85.67285156 C-452.60912369 85.51106415 -451.80467316 85.34927673 -450.97584534 85.18258667 C-449.6574894 84.9271257 -449.6574894 84.9271257 -448.3125 84.66650391 C-446.38769899 84.27984624 -444.46297949 83.89278268 -442.53833008 83.50537109 C-441.5160733 83.30182007 -440.49381653 83.09826904 -439.44058228 82.8885498 C-420.59142413 79.12135687 -401.86063433 74.96858931 -383.1953125 70.37744141 C-382.19779968 70.13358704 -381.20028687 69.88973267 -380.17254639 69.63848877 C-367.35432002 66.49746549 -354.64424734 63.07063429 -341.9744873 59.37789917 C-339.37698532 58.62575406 -336.77582191 57.88800942 -334.17285156 57.1550293 C-322.51219804 53.86806739 -310.92884274 50.37267419 -299.37271118 46.7359314 C-296.32972314 45.7785758 -293.28545569 44.82537397 -290.2409668 43.87280273 C-279.00231402 40.35305512 -267.77456252 36.80032134 -256.5546875 33.22119141 C-230.98182194 25.07395551 -205.4255095 17.14261184 -179.3828125 10.62744141 C-178.70941833 10.45833252 -178.03602417 10.28922363 -177.34222412 10.11499023 C-160.15145842 5.80890866 -142.928386 2.15719947 -125.3828125 -0.37255859 C-124.38604492 -0.51677246 -123.38927734 -0.66098633 -122.36230469 -0.80957031 C-119.34980734 -1.23834235 -116.33586454 -1.65335503 -113.3203125 -2.06005859 C-112.44125244 -2.17961914 -111.56219238 -2.29917969 -110.65649414 -2.42236328 C-74.31019003 -7.09386367 -36.07448819 -6.26109825 0 0 Z " fill="#C8B2EF" transform="translate(473.3828125,16.37255859375)"/>
<path d="M0 0 C35.04898711 2.78113378 84.03732417 16.18296968 111 40 C37.3181622 41.0999815 37.3181622 41.0999815 16 21 C9.57817584 14.63982535 4.59348304 7.76904205 0 0 Z " fill="#F8F8F8" transform="translate(842,151)"/>
<path d="M0 0 C0 0.33 0 0.66 0 1 C0.5347998 0.9285376 1.06959961 0.8570752 1.62060547 0.78344727 C9.78630453 -0.17905278 17.91939011 -0.11244227 26.125 -0.0625 C27.57291511 -0.05747252 29.02083192 -0.05291183 30.46875 -0.04882812 C33.97920259 -0.03792705 37.48959007 -0.02073202 41 0 C41 0.33 41 0.66 41 1 C40.17725586 1.04487549 39.35451172 1.08975098 38.50683594 1.13598633 C22.47795725 2.0280843 6.54634797 3.14164561 -9.40820312 4.95751953 C-18.26446999 5.95687987 -27.09635003 6.6311345 -36 7 C-32.63346906 4.75564604 -30.2026151 4.25677912 -26.25 3.45703125 C-25.26821777 3.25795418 -25.26821777 3.25795418 -24.26660156 3.05485535 C-22.88543481 2.77679633 -21.50357578 2.50215693 -20.12109375 2.23071289 C-18.0055094 1.81358628 -15.89345083 1.38116163 -13.78125 0.94726562 C-12.43768524 0.6787589 -11.09394064 0.4111502 -9.75 0.14453125 C-8.52796875 -0.09934326 -7.3059375 -0.34321777 -6.046875 -0.59448242 C-3 -1 -3 -1 0 0 Z " fill="#8565B7" transform="translate(49,98)"/>
<path d="M0 0 C10.54112398 3.21223601 19.89730036 9.61074561 28 17 C28.495 17.99 28.495 17.99 29 19 C24.54914447 17.63927158 20.61389458 15.85498418 16.5 13.6875 C9.54136756 10.09500461 2.43348745 7.45146927 -5 5 C-4.67 4.01 -4.34 3.02 -4 2 C-1.03 2.99 1.94 3.98 5 5 C3.35 3.35 1.7 1.7 0 0 Z " fill="#6935C8" transform="translate(755,153)"/>
<path d="M0 0 C7.21672958 1.07849377 14.40397464 2.21420229 21.5625 3.6328125 C23.98093491 4.07114682 23.98093491 4.07114682 26.375 3.9296875 C29.10662868 4.00285613 31.33770934 4.66147027 33.93457031 5.4609375 C39.09447002 6.80763473 44.50439978 7.21082491 49.7890625 7.85546875 C50.70171875 7.97535156 51.614375 8.09523437 52.5546875 8.21875 C53.38468262 8.32123047 54.21467773 8.42371094 55.06982422 8.52929688 C55.70678223 8.68462891 56.34374023 8.83996094 57 9 C57.495 9.99 57.495 9.99 58 11 C48.34099284 10.48822781 39.02134062 9.33945362 29.5 7.625 C28.29730469 7.41617188 27.09460938 7.20734375 25.85546875 6.9921875 C22.23161354 6.35382847 18.61498542 5.68676974 15 5 C14.01942627 4.81383118 14.01942627 4.81383118 13.01904297 4.62390137 C11.06265425 4.24711451 9.10938627 3.85423622 7.15625 3.4609375 C5.99931641 3.22938965 4.84238281 2.9978418 3.65039062 2.75927734 C2.33844727 2.38343506 2.33844727 2.38343506 1 2 C0.67 1.34 0.34 0.68 0 0 Z " fill="#7142C1" transform="translate(370,133)"/>
<path d="M0 0 C0 0.33 0 0.66 0 1 C0.5347998 0.9285376 1.06959961 0.8570752 1.62060547 0.78344727 C9.78630453 -0.17905278 17.91939011 -0.11244227 26.125 -0.0625 C27.57291511 -0.05747252 29.02083192 -0.05291183 30.46875 -0.04882812 C33.97920259 -0.03792705 37.48959007 -0.02073202 41 0 C41 0.33 41 0.66 41 1 C36.73611041 1.29170715 32.47180646 1.57610766 28.20703125 1.85449219 C26.76419772 1.94961705 25.32148173 2.0465466 23.87890625 2.14550781 C15.96410088 2.68716349 8.05933563 3.10680569 0.125 3.1875 C-1.82019531 3.20876953 -1.82019531 3.20876953 -3.8046875 3.23046875 C-7 3 -7 3 -10 1 C-3.375 -1.125 -3.375 -1.125 0 0 Z " fill="#A07ADA" transform="translate(49,98)"/>
<path d="M0 0 C-0.33 0.99 -0.66 1.98 -1 3 C-4.79160297 3.05786668 -8.58309311 3.09355054 -12.375 3.125 C-13.99535156 3.15013672 -13.99535156 3.15013672 -15.6484375 3.17578125 C-16.6796875 3.18222656 -17.7109375 3.18867187 -18.7734375 3.1953125 C-20.20308838 3.21102295 -20.20308838 3.21102295 -21.66162109 3.22705078 C-24 3 -24 3 -26 1 C-17.33003296 -0.16711095 -8.72630608 -0.09744014 0 0 Z " fill="#D2D2D1" transform="translate(601,107)"/>
<path d="M0 0 C7.77808906 -0.13889445 14.58326424 0.42684678 22 3 C24.37626751 3.5126062 26.75529722 3.98926849 29.14453125 4.4375 C30.06298828 4.7159375 30.06298828 4.7159375 31 5 C31.33 5.66 31.66 6.32 32 7 C24.82856996 6.34941146 17.95786552 5.01874321 10.9375 3.4375 C9.88111328 3.20353516 8.82472656 2.96957031 7.73632812 2.72851562 C5.15658727 2.15653688 2.57788225 1.58028727 0 1 C0 0.67 0 0.34 0 0 Z " fill="#8A60CD" transform="translate(281,115)"/>
<path d="M0 0 C-15.82181973 6.55793735 -15.82181973 6.55793735 -21 5 C-3.35983264 -1.67991632 -3.35983264 -1.67991632 0 0 Z " fill="#E4D9EC" transform="translate(260,57)"/>
<path d="M0 0 C4.97306516 0.49730652 8.63799813 1.55302334 13 4 C9.57056481 5.18771723 7.62215325 4.80226223 4.25 3.5625 C3.45078125 3.27503906 2.6515625 2.98757812 1.828125 2.69140625 C1.22484375 2.46324219 0.6215625 2.23507813 0 2 C0 1.34 0 0.68 0 0 Z " fill="#8659CF" transform="translate(318,121)"/>
<path d="M0 0 C0 0.33 0 0.66 0 1 C-5.45769811 1.11138159 -10.61509359 0.91657981 -16 0 C-16 -0.33 -16 -0.66 -16 -1 C-9.93179132 -2.08360869 -5.89893243 -1.79074734 0 0 Z " fill="#7443C7" transform="translate(406,139)"/>
<path d="M0 0 C3.91402949 1.26941497 5.79072873 2.51167694 8 6 C2.33846154 4.52307692 2.33846154 4.52307692 0.625 1.875 C0.41875 1.25625 0.2125 0.6375 0 0 Z " fill="#6B30BD" transform="translate(776,166)"/>
<path d="M0 0 C3.4375 0.8125 3.4375 0.8125 7 2 C7.33 2.99 7.66 3.98 8 5 C5.36 4.34 2.72 3.68 0 3 C0 2.01 0 1.02 0 0 Z " fill="#5D2EB6" transform="translate(750,155)"/>
<path d="M0 0 C-0.33 0.99 -0.66 1.98 -1 3 C-3.97 2.505 -3.97 2.505 -7 2 C-5.26578631 -1.46842738 -3.40984787 -1.13661596 0 0 Z " fill="#171121" transform="translate(201,79)"/>
</svg>
